<svg width="16" height="17" viewBox="0 0 16 17" fill="none" xmlns="http://www.w3.org/2000/svg">
<g clip-path="url(#clip0_879_6432)">
<path d="M15.8757 3.89867L14.7153 8.78452C14.5035 9.67603 13.7157 10.2987 12.7994 10.2987H5.75586L6.03303 11.4536C6.13936 11.8968 6.53204 12.2064 6.9878 12.2064H13.968V13.191H6.9878C6.07493 13.191 5.2886 12.571 5.07555 11.6834L2.91536 2.68224C2.80896 2.23898 2.41635 1.92944 1.96053 1.92944H0.121887V0.944824H1.96053C2.87333 0.944824 3.65973 1.56476 3.87278 2.45246L4.21986 3.89867H15.8757ZM5.94644 15.2833C5.94644 16.065 6.5801 16.6987 7.36183 16.6987C8.14355 16.6987 8.77721 16.065 8.77721 15.2833C8.77721 14.5016 8.14355 13.8679 7.36183 13.8679C6.5801 13.8679 5.94644 14.5016 5.94644 15.2833ZM11.1157 15.2833C11.1157 16.065 11.7493 16.6987 12.5311 16.6987C13.3128 16.6987 13.9464 16.065 13.9464 15.2833C13.9464 14.5016 13.3128 13.8679 12.5311 13.8679C11.7493 13.8679 11.1157 14.5016 11.1157 15.2833Z" fill="#1F49DE"/>
</g>
<defs>
<clipPath id="clip0_879_6432">
<rect width="16" height="16" fill="white" transform="translate(0 0.821289)"/>
</clipPath>
</defs>
</svg>
