<svg width="31" height="32" viewBox="0 0 31 32" fill="none" xmlns="http://www.w3.org/2000/svg">
<rect y="0.951172" width="30.4106" height="30.4099" rx="15.205" fill="#1744E3"/>
<path d="M8 16.5386H9.80118" stroke="white" stroke-width="0.785672" stroke-linecap="round"/>
<path d="M20.6094 16.6025H22.4106" stroke="white" stroke-width="0.785672" stroke-linecap="round"/>
<path d="M20.6086 11.3103L19.2422 12.7768" stroke="white" stroke-width="0.785672" stroke-linecap="round"/>
<path fill-rule="evenodd" clip-rule="evenodd" d="M17.9352 18.2303C18.478 17.5854 18.8055 16.75 18.8055 15.8375C18.8055 13.7951 17.1649 12.1394 15.141 12.1394C13.1172 12.1394 11.4766 13.7951 11.4766 15.8375C11.4766 16.8058 11.8453 17.6871 12.4487 18.3463C12.5001 18.4422 12.553 18.5405 12.6067 18.6403C13.0938 19.5456 13.6436 20.5675 13.723 20.9384H16.7409C16.7475 20.9216 16.7544 20.904 16.7615 20.8859C16.9729 20.3453 17.4038 19.2438 17.9352 18.2303Z" fill="white"/>
<path fill-rule="evenodd" clip-rule="evenodd" d="M14.2347 21.4482C13.9454 21.4482 13.7109 21.6827 13.7109 21.972V22.1997C13.7109 22.4797 13.9306 22.7083 14.207 22.7227C14.207 22.723 14.207 22.7232 14.207 22.7234C14.207 23.0756 14.4925 23.361 14.8446 23.361H15.5569C15.9091 23.361 16.1945 23.0756 16.1945 22.7234C16.1945 22.7232 16.1945 22.723 16.1945 22.7228C16.4717 22.7092 16.6922 22.4802 16.6922 22.1997V21.972C16.6922 21.6827 16.4577 21.4482 16.1684 21.4482H14.2347Z" fill="white"/>
<path d="M15.3906 11.119V8.95117" stroke="white" stroke-width="0.785672" stroke-linecap="round"/>
<path d="M10.1719 11.1829L11.4141 12.5856" stroke="white" stroke-width="0.785672" stroke-linecap="round"/>
</svg>
