<svg width="22" height="43" viewBox="0 0 22 43" fill="none" xmlns="http://www.w3.org/2000/svg">
<path fill-rule="evenodd" clip-rule="evenodd" d="M0.286133 19.8743L10.8105 13.0331L21.2488 19.9167L10.7646 0.929932L0.286133 19.8743ZM0.685457 21.8509L10.8198 15.1726L20.8223 21.8013L10.8255 28.4867L0.685457 21.8509ZM0.286133 23.763C3.9797 26.185 7.83385 28.7204 10.8105 30.6821L21.2488 23.763C17.4692 30.6962 14.3205 36.4681 10.8105 42.856L8.65753 38.9534C5.76607 33.7126 2.78431 28.308 0.286133 23.763Z" fill="white" fill-opacity="0.6"/>
<path fill-rule="evenodd" clip-rule="evenodd" d="M10.7684 0.929932L10.8077 13.0331L21.2498 19.9167L10.7684 0.929932ZM10.8167 15.1724L20.8852 21.8012L10.8216 28.4866L10.8167 15.1724ZM10.8123 30.6819L21.2543 23.7628C18.0156 30.6961 10.8123 42.8559 10.8123 42.8559V30.6819Z" fill="white"/>
</svg>
