<svg width="31" height="32" viewBox="0 0 31 32" fill="none" xmlns="http://www.w3.org/2000/svg">
<rect y="0.950195" width="30.4119" height="30.4119" rx="15.2059" fill="#1744E3"/>
<path d="M19.7777 12.8414L19.7861 12.8312L17.3841 10.8856L16.6275 11.8188L17.8687 12.824C17.5608 13.0111 17.3163 13.2866 17.167 13.6145C17.0177 13.9424 16.9705 14.3076 17.0316 14.6627C17.1217 15.2026 17.4934 15.6692 17.9744 15.9304C18.5118 16.2228 18.9832 16.1958 19.4024 16.0469L19.3934 19.7591C19.3941 19.8586 19.37 19.9566 19.3233 20.0444C19.2766 20.1322 19.2087 20.207 19.1259 20.2619C19.043 20.3169 18.9478 20.3503 18.8487 20.3592C18.7497 20.3681 18.65 20.3521 18.5587 20.3128C18.4871 20.2822 18.4223 20.2379 18.3677 20.1825C18.3122 20.1269 18.2682 20.0608 18.2382 19.9882C18.2082 19.9156 18.1928 19.8377 18.193 19.7591L18.2068 18.5582C18.2074 18.3218 18.1612 18.0876 18.0708 17.8692C17.9804 17.6508 17.8476 17.4525 17.6801 17.2857C17.5128 17.118 17.3141 16.985 17.0954 16.8942C16.8766 16.8035 16.6421 16.7567 16.4053 16.7567H15.8048V11.9527C15.8048 11.6342 15.6783 11.3287 15.453 11.1035C15.2278 10.8782 14.9223 10.7517 14.6038 10.7517H10.4003C10.0818 10.7517 9.77633 10.8782 9.5511 11.1035C9.32587 11.3287 9.19934 11.6342 9.19934 11.9527V20.3596C9.19934 20.6782 9.32587 20.9836 9.5511 21.2089C9.77633 21.4341 10.0818 21.5606 10.4003 21.5606H14.6038C14.9223 21.5606 15.2278 21.4341 15.453 21.2089C15.6783 20.9836 15.8048 20.6782 15.8048 20.3596V17.9577H16.4053C16.487 17.9577 16.5656 17.9739 16.6401 18.0045C16.783 18.0671 16.8969 18.1814 16.9589 18.3246C16.9901 18.3985 17.006 18.4779 17.0058 18.5582L16.9914 19.7591C16.9914 20.0029 17.0388 20.2389 17.1331 20.4605C17.2238 20.6761 17.3541 20.8689 17.518 21.0316C17.6847 21.2001 17.8833 21.3336 18.1022 21.4244C18.3211 21.5153 18.5559 21.5616 18.7929 21.5606C19.0367 21.5606 19.2721 21.5138 19.4942 21.4189C19.7092 21.3288 19.9026 21.1985 20.0653 21.034C20.2334 20.867 20.3667 20.6684 20.4575 20.4496C20.5484 20.2307 20.5949 19.9961 20.5943 19.7591L20.6088 14.3547C20.6082 14.053 20.5317 13.7563 20.3865 13.4919C20.2413 13.2275 20.0319 13.0038 19.7777 12.8414ZM14.6038 13.7542H10.4003V11.9527H14.6038V13.7542ZM18.8073 14.9552C18.648 14.9552 18.4953 14.8919 18.3827 14.7793C18.27 14.6667 18.2068 14.5139 18.2068 14.3547C18.2068 14.1954 18.27 14.0427 18.3827 13.9301C18.4953 13.8175 18.648 13.7542 18.8073 13.7542C18.9665 13.7542 19.1193 13.8175 19.2319 13.9301C19.3445 14.0427 19.4078 14.1954 19.4078 14.3547C19.4078 14.5139 19.3445 14.6667 19.2319 14.7793C19.1193 14.8919 18.9665 14.9552 18.8073 14.9552Z" fill="white"/>
</svg>
