<svg width="31" height="32" viewBox="0 0 31 32" fill="none" xmlns="http://www.w3.org/2000/svg">
<rect y="0.951172" width="30.41" height="30.41" rx="15.205" fill="#1744E3"/>
<path d="M8 12.039C8 11.2201 8.32533 10.4347 8.90441 9.85558C9.4835 9.2765 10.2689 8.95117 11.0879 8.95117H19.3221C20.1411 8.95117 20.9265 9.2765 21.5056 9.85558C22.0847 10.4347 22.41 11.2201 22.41 12.039V20.2733C22.41 21.0923 22.0847 21.8777 21.5056 22.4568C20.9265 23.0358 20.1411 23.3612 19.3221 23.3612H11.0879C10.2689 23.3612 9.4835 23.0358 8.90441 22.4568C8.32533 21.8777 8 21.0923 8 20.2733V12.039ZM19.6865 13.1754C19.7344 13.1276 19.7723 13.0708 19.7983 13.0084C19.8242 12.9459 19.8375 12.879 19.8376 12.8114C19.8376 12.7437 19.8244 12.6768 19.7985 12.6143C19.7727 12.5518 19.7348 12.495 19.687 12.4471C19.6392 12.3993 19.5825 12.3613 19.52 12.3354C19.4576 12.3095 19.3906 12.2961 19.323 12.2961C19.2554 12.296 19.1884 12.3093 19.1259 12.3351C19.0634 12.361 19.0067 12.3988 18.9588 12.4466L17.5044 13.9L17.0958 13.5274C16.9943 13.4406 16.863 13.3967 16.7297 13.4049C16.5964 13.4132 16.4715 13.4729 16.3814 13.5715C16.2913 13.6702 16.2431 13.7999 16.247 13.9334C16.2508 14.0669 16.3064 14.1937 16.4021 14.287L17.174 14.992C17.2718 15.0811 17.4002 15.1291 17.5324 15.126C17.6647 15.1229 17.7907 15.0691 17.8842 14.9756L19.6855 13.1743L19.6865 13.1754ZM19.6865 17.5931C19.59 17.4966 19.4591 17.4424 19.3227 17.4424C19.1862 17.4424 19.0553 17.4966 18.9588 17.5931L17.5044 19.0464L17.0958 18.6738C16.9943 18.587 16.863 18.5431 16.7297 18.5514C16.5964 18.5596 16.4715 18.6193 16.3814 18.718C16.2913 18.8166 16.2431 18.9464 16.247 19.0799C16.2508 19.2134 16.3064 19.3402 16.4021 19.4334L17.174 20.1385C17.2717 20.2277 17.4 20.2758 17.5322 20.2729C17.6645 20.2701 17.7905 20.2164 17.8842 20.123L19.6855 18.3218C19.782 18.2253 19.8362 18.0944 19.8362 17.9579C19.8362 17.8215 19.782 17.6906 19.6855 17.5941L19.6865 17.5931ZM11.6025 18.2147C11.466 18.2147 11.3351 18.269 11.2386 18.3655C11.1421 18.462 11.0879 18.5929 11.0879 18.7294C11.0879 18.8659 11.1421 18.9968 11.2386 19.0933C11.3351 19.1898 11.466 19.244 11.6025 19.244H14.1757C14.3122 19.244 14.4431 19.1898 14.5396 19.0933C14.6361 18.9968 14.6904 18.8659 14.6904 18.7294C14.6904 18.5929 14.6361 18.462 14.5396 18.3655C14.4431 18.269 14.3122 18.2147 14.1757 18.2147H11.6025ZM11.0879 13.583C11.0879 13.7194 11.1421 13.8504 11.2386 13.9469C11.3351 14.0434 11.466 14.0976 11.6025 14.0976H14.1757C14.3122 14.0976 14.4431 14.0434 14.5396 13.9469C14.6361 13.8504 14.6904 13.7194 14.6904 13.583C14.6904 13.4465 14.6361 13.3156 14.5396 13.219C14.4431 13.1225 14.3122 13.0683 14.1757 13.0683H11.6025C11.466 13.0683 11.3351 13.1225 11.2386 13.219C11.1421 13.3156 11.0879 13.4465 11.0879 13.583Z" fill="white"/>
</svg>
