<svg width="31" height="32" viewBox="0 0 31 32" fill="none" xmlns="http://www.w3.org/2000/svg">
<rect y="0.951172" width="30.41" height="30.41" rx="15.205" fill="#1744E3"/>
<path d="M22.0829 12.2891L20.5645 9.37334C20.4288 9.1116 20.1878 8.95117 19.9305 8.95117H10.4786C10.2213 8.95117 9.98029 9.1116 9.8446 9.37334L8.32622 12.2891C7.54247 13.7948 8.23732 15.8888 9.70189 16.128C9.80717 16.1449 9.91479 16.1534 10.0224 16.1534C10.7149 16.1534 11.3279 15.7875 11.749 15.2218C12.1701 15.7875 12.7854 16.1534 13.4756 16.1534C14.1681 16.1534 14.7811 15.7875 15.2022 15.2218C15.6233 15.7875 16.2386 16.1534 16.9288 16.1534C17.6213 16.1534 18.2343 15.7875 18.6554 15.2218C19.0789 15.7875 19.6918 16.1534 20.382 16.1534C20.492 16.1534 20.5972 16.1449 20.7025 16.128C22.1718 15.8916 22.869 13.7977 22.0829 12.2891ZM20.3867 17.0568C20.1527 17.0568 19.9211 17.0146 19.6965 16.9498V19.7587H10.7126V16.9498C10.488 17.0118 10.2564 17.0568 10.0224 17.0568C9.88203 17.0568 9.73932 17.0455 9.60128 17.023C9.47027 17.0005 9.34159 16.9639 9.2176 16.9217V22.4605C9.2176 22.9587 9.55215 23.3612 9.96626 23.3612H20.4475C20.8616 23.3612 21.1962 22.9587 21.1962 22.4605V16.9217C21.0698 16.9667 20.9435 17.0033 20.8125 17.023C20.6698 17.0455 20.5294 17.0568 20.3867 17.0568Z" fill="white"/>
</svg>
