<svg width="15" height="19" viewBox="0 0 15 19" fill="none" xmlns="http://www.w3.org/2000/svg">
<path d="M14.8526 13.0279C14.6495 12.6673 14.266 12.4434 13.8517 12.4434C13.656 12.4434 13.4616 12.4945 13.2898 12.5913L9.9454 14.4747C9.90173 14.4993 9.87023 14.5409 9.85826 14.5895C9.79994 14.8276 9.66261 15.1601 9.34003 15.3916C8.98297 15.6478 8.49994 15.7012 7.91138 15.5503C7.90784 15.5494 7.90433 15.5484 7.90123 15.5474L5.97195 14.9484C5.85529 14.9121 5.78987 14.7877 5.82609 14.6711C5.85509 14.5778 5.94008 14.5152 6.03761 14.5152C6.05976 14.5152 6.08196 14.5185 6.10343 14.5252L8.02268 15.1211C8.02574 15.1221 8.02888 15.1229 8.03203 15.1237C8.48464 15.238 8.83812 15.2062 9.08162 15.0316C9.38926 14.8108 9.44344 14.4228 9.44984 14.3658C9.45008 14.364 9.45029 14.3622 9.45041 14.3603C9.45053 14.3594 9.45057 14.3589 9.45061 14.3587C9.45065 14.3581 9.45069 14.3575 9.45073 14.357C9.45077 14.3566 9.45077 14.3562 9.45081 14.3558C9.48743 13.8773 9.17866 13.4355 8.71606 13.3049L8.70756 13.3023C8.69346 13.2977 7.27367 12.834 6.36905 12.5758C6.26855 12.5472 5.99161 12.4805 5.59108 12.4805C5.03091 12.4805 4.19526 12.6133 3.39372 13.2469L0.0672866 15.9376C-0.00880671 15.9992 -0.0223013 16.11 0.0367526 16.188L1.83786 18.5671C1.86706 18.6056 1.9104 18.6309 1.9583 18.6373C1.96632 18.6384 1.97433 18.6389 1.98239 18.6389C2.02215 18.6389 2.0611 18.6258 2.09296 18.6013L4.4129 16.815C4.46503 16.7749 4.53492 16.7598 4.59897 16.7749L8.34603 17.6604C8.62389 17.726 8.9242 17.6836 9.17274 17.5435L14.4159 14.5907C14.9671 14.2802 15.163 13.5792 14.8526 13.0279Z" fill="#5CDD90"/>
<path fill-rule="evenodd" clip-rule="evenodd" d="M5.51367 5.48624L8.71666 3.62106L11.8935 5.49782L8.70269 0.321289L5.51367 5.48624ZM5.63672 6.02535L8.72101 4.20459L11.7652 6.01184L8.72276 7.83454L5.63672 6.02535ZM5.51367 6.54688C6.63777 7.20722 7.81075 7.89845 8.71666 8.43329L11.8935 6.54688C10.7432 8.43715 9.7849 10.0108 8.71666 11.7524L8.06156 10.6886L8.06085 10.6874C7.18104 9.25887 6.2738 7.78576 5.51367 6.54688Z" fill="#5CDD90"/>
<path fill-rule="evenodd" clip-rule="evenodd" d="M8.70117 0.321289L8.71314 3.62106L11.8911 5.49782L8.70117 0.321289ZM8.71582 4.20459L11.7801 6.01184L8.71732 7.83454L8.71582 4.20459ZM8.71289 8.43329L11.8908 6.54688C10.9051 8.43715 8.71289 11.7524 8.71289 11.7524V8.43329Z" fill="#5CDD90"/>
</svg>
