<svg width="72" height="73" viewBox="0 0 72 73" fill="none" xmlns="http://www.w3.org/2000/svg">
<circle cx="36" cy="36.9512" r="36" fill="#5CDD90"/>
<path d="M53.3389 44.8469C52.8283 43.9405 51.8641 43.3774 50.8225 43.3774C50.3306 43.3774 49.8421 43.5061 49.41 43.7493L41.0024 48.4842C40.8926 48.546 40.8134 48.6505 40.7833 48.7728C40.6367 49.3714 40.2915 50.2072 39.4805 50.7892C38.5829 51.4333 37.3685 51.5675 35.8889 51.1881C35.88 51.1858 35.8712 51.1833 35.8634 51.1809L31.0133 49.6749C30.72 49.5839 30.5555 49.2712 30.6466 48.978C30.7195 48.7434 30.9332 48.5859 31.1783 48.5859C31.234 48.5859 31.2898 48.5944 31.3438 48.6111L36.1687 50.1092C36.1764 50.1116 36.1843 50.1138 36.1922 50.1158C37.3301 50.403 38.2187 50.3231 38.8309 49.8841C39.6042 49.3292 39.7405 48.3537 39.7566 48.2104C39.7572 48.2058 39.7577 48.2013 39.758 48.1966L39.7585 48.1926L39.7588 48.1882L39.759 48.1853C39.851 46.9824 39.0748 45.8717 37.9119 45.5433L37.8905 45.5368C37.855 45.5252 34.2857 44.3594 32.0116 43.7105C31.7589 43.6385 31.0627 43.4709 30.0558 43.4709C28.6475 43.4709 26.5467 43.8046 24.5317 45.3975L16.1692 52.162C15.9779 52.3166 15.9439 52.5952 16.0924 52.7913L20.6203 58.7722C20.6937 58.8691 20.8027 58.9326 20.9231 58.9489C20.9432 58.9516 20.9634 58.9529 20.9837 58.9529C21.0836 58.9529 21.1815 58.92 21.2616 58.8582L27.0939 54.3675C27.2249 54.2667 27.4006 54.2287 27.5616 54.2667L36.9816 56.4928C37.6802 56.6579 38.4351 56.5513 39.0599 56.1991L52.241 48.7757C53.6268 47.9951 54.1192 46.2328 53.3389 44.8469Z" fill="white"/>
<path fill-rule="evenodd" clip-rule="evenodd" d="M30.1426 24.6715L38.031 20.0779L45.8548 24.7L37.9966 11.9512L30.1426 24.6715ZM30.4434 25.9975L38.0394 21.5133L45.5366 25.9642L38.0437 30.4532L30.4434 25.9975ZM30.1426 27.2823C32.911 28.9086 35.7999 30.611 38.031 31.9282L45.8548 27.2823C43.0219 31.9377 40.6618 35.8133 38.031 40.1025L36.4178 37.4829L36.4168 37.4814C34.2497 33.9626 32.0149 30.3339 30.1426 27.2823Z" fill="white"/>
<path fill-rule="evenodd" clip-rule="evenodd" d="M37.9941 11.9512L38.0236 20.0779L45.8503 24.7L37.9941 11.9512ZM38.0312 21.5133L45.578 25.9642L38.0349 30.4532L38.0312 21.5133ZM38.0234 31.9282L45.8501 27.2823C43.4225 31.9377 38.0234 40.1025 38.0234 40.1025V31.9282Z" fill="white"/>
</svg>
