<svg width="54" height="55" viewBox="0 0 54 55" fill="none" xmlns="http://www.w3.org/2000/svg">
<circle cx="27" cy="27.9512" r="27" fill="#1744E3"/>
<path fill-rule="evenodd" clip-rule="evenodd" d="M18.0011 19.8977V38.7257C18.0011 39.2436 18.5288 39.5942 19.0062 39.3935L27.1536 35.9681L34.9878 39.3753C35.4662 39.5834 36.0011 39.2328 36.0011 38.7111V19.8977C36.0011 18.2704 34.6819 16.9512 33.0545 16.9512H20.9477C19.3203 16.9512 18.0011 18.2704 18.0011 19.8977ZM29.4368 30.9738C29.921 30.4338 30.1632 29.79 30.1632 29.0423C30.1632 28.798 30.1315 28.5683 30.0683 28.3533C30.005 28.1383 29.9283 27.9514 29.8383 27.7926C29.7483 27.6338 29.6193 27.4786 29.4514 27.3271C29.2835 27.1757 29.1327 27.0535 28.9989 26.9606C28.865 26.8678 28.6813 26.764 28.4477 26.6491C28.2141 26.5343 28.0292 26.4488 27.893 26.3926C27.7567 26.3364 27.5596 26.2594 27.3017 26.1617C27.073 26.0737 26.9026 26.0065 26.7907 25.9601C26.6788 25.9137 26.5316 25.8477 26.3491 25.7622C26.1666 25.6767 26.0303 25.601 25.9403 25.535C25.8503 25.469 25.7542 25.3884 25.652 25.2931C25.5498 25.1978 25.478 25.0964 25.4366 24.9889C25.3953 24.8814 25.3746 24.7641 25.3746 24.6371C25.3746 24.3048 25.5206 24.0336 25.8126 23.8235C26.1045 23.6133 26.4817 23.5083 26.944 23.5083C27.1484 23.5083 27.3564 23.5364 27.5681 23.5926C27.7798 23.6488 27.9611 23.7123 28.1119 23.7831C28.2628 23.854 28.4052 23.9322 28.539 24.0177C28.6728 24.1032 28.7677 24.168 28.8237 24.2119C28.8796 24.2559 28.9149 24.2852 28.9295 24.2999C28.9928 24.3488 29.0585 24.3659 29.1266 24.3512C29.1996 24.3463 29.2556 24.3072 29.2945 24.2339L29.8858 23.1638C29.9442 23.066 29.932 22.9732 29.8493 22.8852C29.8201 22.8559 29.7836 22.8217 29.7398 22.7826C29.696 22.7435 29.6011 22.6727 29.4551 22.5701C29.3091 22.4674 29.1546 22.3758 28.9916 22.2952C28.8285 22.2146 28.6168 22.1327 28.3565 22.0496C28.0961 21.9666 27.8273 21.9104 27.5499 21.881V20.591C27.5499 20.5226 27.528 20.4664 27.4842 20.4224C27.4404 20.3784 27.3844 20.3564 27.3163 20.3564H26.3308C26.2676 20.3564 26.2128 20.3796 26.1666 20.4261C26.1204 20.4725 26.0972 20.5275 26.0972 20.591V21.9104C25.3332 22.057 24.7127 22.3844 24.2358 22.8926C23.7589 23.4008 23.5205 23.992 23.5205 24.6664C23.5205 24.8667 23.5411 25.0573 23.5825 25.2381C23.6239 25.4189 23.675 25.5814 23.7358 25.7256C23.7966 25.8697 23.883 26.0114 23.9949 26.1507C24.1069 26.29 24.2127 26.4097 24.3125 26.5099C24.4122 26.61 24.5424 26.7139 24.703 26.8214C24.8636 26.9289 25.0011 27.0156 25.1154 27.0816C25.2298 27.1476 25.3819 27.2233 25.5717 27.3088C25.7615 27.3943 25.9111 27.4591 26.0206 27.5031C26.1301 27.547 26.2797 27.6081 26.4695 27.6863C26.7323 27.7889 26.927 27.8683 27.0535 27.9245C27.18 27.9807 27.3406 28.0589 27.5353 28.1591C27.7299 28.2593 27.8723 28.3509 27.9623 28.434C28.0523 28.517 28.1338 28.6196 28.2068 28.7418C28.2798 28.864 28.3163 28.9935 28.3163 29.1303C28.3163 29.5163 28.1667 29.8144 27.8674 30.0245C27.5681 30.2347 27.2214 30.3397 26.8272 30.3397C26.6471 30.3397 26.4671 30.3202 26.287 30.2811C25.6544 30.154 25.0631 29.8486 24.5132 29.3648L24.4986 29.3502C24.4548 29.2964 24.3964 29.2744 24.3234 29.2842C24.2456 29.294 24.1896 29.3233 24.1555 29.3722L23.4037 30.3617C23.3307 30.4594 23.3355 30.5596 23.4183 30.6622C23.4426 30.6916 23.4852 30.7355 23.546 30.7942C23.6068 30.8528 23.72 30.9444 23.8854 31.069C24.0509 31.1936 24.231 31.3109 24.4256 31.4209C24.6203 31.5308 24.8672 31.6395 25.1665 31.7471C25.4658 31.8546 25.7761 31.9303 26.0972 31.9743V33.257C26.0972 33.3205 26.1204 33.3755 26.1666 33.4219C26.2128 33.4684 26.2676 33.4916 26.3308 33.4916H27.3163C27.3844 33.4916 27.4404 33.4696 27.4842 33.4256C27.528 33.3816 27.5499 33.3254 27.5499 33.257V31.9743C28.3236 31.8472 28.9526 31.5137 29.4368 30.9738Z" fill="white"/>
</svg>
