<svg width="50" height="50" viewBox="0 0 50 50" fill="none" xmlns="http://www.w3.org/2000/svg">
<path d="M3.80201 11.5073C1.30845 15.4518 0 19.9939 0 24.6712C0 29.3499 1.30845 33.8906 3.80201 37.835C3.80201 37.835 5.17214 32.2546 4.71543 30.7553C4.1148 28.783 3.80935 26.7345 3.80935 24.6712C3.80935 22.6094 4.11627 20.5608 4.71543 18.5886L3.80201 11.5073Z" fill="url(#paint0_linear_1241_7462)"/>
<path d="M8.66711 43.4492C13.1211 47.2512 18.7632 49.3423 24.6711 49.3423C29.1031 49.3423 33.3838 48.1646 37.1256 45.9721L22.1643 29.8712L9.36612 17.073C9.36612 17.073 7.35278 22.9588 7.35278 24.6711C7.35278 26.3849 7.59802 28.0884 8.09732 29.7273C8.59515 31.3632 9.33675 32.9154 10.2928 34.334L11.1078 35.5426L5.93271 40.7177L5.69922 40.9512L5.89747 41.1127C6.82998 41.8793 7.74928 42.665 8.66711 43.4492Z" fill="url(#paint1_linear_1241_7462)"/>
<path d="M43.4096 40.7177L8.5792 5.96948C8.31193 6.20004 5.8125 8.50709 5.8125 8.50709L39.6811 44.2524C40.3257 43.7561 43.4096 40.7177 43.4096 40.7177Z" fill="url(#paint2_linear_1241_7462)"/>
<path d="M49.34 24.6712C49.34 19.9939 48.0316 15.4532 45.538 11.5088C45.538 11.5088 44.1679 17.0892 44.6246 18.5885C45.2252 20.5608 45.5307 22.6094 45.5307 24.6712C45.5307 26.733 45.2252 28.7816 44.6246 30.7553C44.4454 31.3441 44.2398 31.9257 44.0078 32.4955L45.5365 37.835C48.0316 33.8891 49.34 29.3484 49.34 24.6712Z" fill="url(#paint3_linear_1241_7462)"/>
<path d="M43.0959 8.93597C41.6288 6.79927 39.7462 4.97095 37.536 3.61698C33.6973 1.26587 29.2624 0 24.6673 0C19.8623 0 15.2335 1.38482 11.2773 3.94592L17.9121 10.4074C17.9136 10.4045 17.9136 10.4016 17.9136 10.3986L27.1726 19.4712L39.1117 31.4103L39.6404 30.9932C40.7903 30.0827 41.5642 28.7743 41.7845 27.3248C41.9181 26.4481 41.9842 25.5611 41.9842 24.6712C41.9842 22.9589 41.7389 21.2554 41.2396 19.6151C40.7418 17.9791 39.9987 16.4269 39.0442 15.0083L38.2306 13.7983L43.1708 8.86107L43.0959 8.93597Z" fill="url(#paint4_linear_1241_7462)"/>
<defs>
<linearGradient id="paint0_linear_1241_7462" x1="-0.000396501" y1="24.6712" x2="4.80779" y2="24.6712" gradientUnits="userSpaceOnUse">
<stop stop-color="#70E8B1"/>
<stop offset="1" stop-color="#2EE6EF"/>
</linearGradient>
<linearGradient id="paint1_linear_1241_7462" x1="5.697" y1="33.2073" x2="37.1259" y2="33.2073" gradientUnits="userSpaceOnUse">
<stop stop-color="#70E8B1"/>
<stop offset="1" stop-color="#2EE6EF"/>
</linearGradient>
<linearGradient id="paint2_linear_1241_7462" x1="5.81271" y1="25.1101" x2="43.4096" y2="25.1101" gradientUnits="userSpaceOnUse">
<stop stop-color="#70E8B1"/>
<stop offset="1" stop-color="#2EE6EF"/>
</linearGradient>
<linearGradient id="paint3_linear_1241_7462" x1="44.0091" y1="24.6712" x2="49.3401" y2="24.6712" gradientUnits="userSpaceOnUse">
<stop stop-color="#70E8B1"/>
<stop offset="1" stop-color="#2EE6EF"/>
</linearGradient>
<linearGradient id="paint4_linear_1241_7462" x1="11.2779" y1="15.7052" x2="43.1706" y2="15.7052" gradientUnits="userSpaceOnUse">
<stop stop-color="#70E8B1"/>
<stop offset="1" stop-color="#2EE6EF"/>
</linearGradient>
</defs>
</svg>
