<svg width="1440" height="828" viewBox="0 0 1440 828" fill="none" xmlns="http://www.w3.org/2000/svg">
<g opacity="0.5">
<path opacity="0.1" d="M-229.521 317.638C-247.167 317.638 -260 377.464 -260 377.464V418V4735H1700V-54.9275C1700 -54.9275 1634.49 72.6347 1576.74 65.5125C1519 58.3903 1525.41 4.2617 1502.95 4.2617C1480.5 4.2617 1477.22 37.8406 1456.43 4.2617C1456.43 4.2617 1437.18 -44.1692 1403.5 -44.1692C1369.81 -44.1692 1360.19 72.6347 1334.52 65.5125C1308.85 58.3903 1308.85 -18.5293 1289.6 -19.9537C1270.35 -21.3782 1270.35 25.6282 1246.29 25.6282H1211C1190.15 25.6282 1183.73 149.554 1161.27 149.554C1138.81 149.554 1154.86 129.612 1121.17 126.763C1087.48 123.914 1101.92 206.532 1065.02 179.467C1028.13 152.403 1028.29 -50.6542 1004.23 -54.9275C980.169 -59.2008 1005.67 126.763 946.316 126.763C886.963 126.763 891.775 55.5414 869.317 54.117C846.859 52.6925 856.484 82.6057 827.61 82.6057C798.735 82.6057 797.131 -0.0116158 763.444 4.2617C729.757 8.53501 724.944 149.554 692.862 126.763C660.779 103.972 665.591 39.8726 649.55 39.8726C633.508 39.8726 628.696 96.8501 609.446 96.8501C590.196 96.8501 599.821 75.4835 582.176 82.6057C564.53 89.7279 538.864 209.381 519.614 206.532C500.364 203.683 519.614 179.467 482.719 179.467C445.823 179.467 474.698 250.689 413.741 242.143C352.783 233.596 384.866 96.8501 336.742 96.8501C288.617 96.8501 282.201 306.242 218.035 272.056C153.869 237.869 176.327 199.41 158.682 195.136C141.036 190.863 131.411 223.625 112.161 223.625C92.9117 223.625 78.4744 159.525 49.5998 149.554C20.7252 139.583 9.49619 272.056 -11.3577 272.056C-32.2115 272.056 -46.6488 179.467 -61.0861 179.467C-75.5234 179.467 -85.1483 223.625 -99.5856 223.625H-134.877L-191.022 344.702C-191.022 344.702 -211.876 317.638 -229.521 317.638Z" fill="url(#paint0_linear_145_1260)"/>
<g opacity="0.5" filter="url(#filter0_d_145_1260)">
<path d="M1700 -54.9275C1700 -54.9275 1634.49 72.6347 1576.74 65.5125C1519 58.3903 1525.41 4.26169 1502.95 4.26169C1480.5 4.26169 1477.22 37.8406 1456.43 4.26169C1456.43 4.26169 1437.18 -44.1692 1403.5 -44.1692C1369.81 -44.1692 1360.19 72.6347 1334.52 65.5125C1308.85 58.3903 1308.85 -18.5293 1289.6 -19.9537C1270.35 -21.3782 1270.35 25.6282 1246.29 25.6282C1222.23 25.6282 1231.85 25.6282 1211 25.6282C1190.15 25.6282 1183.73 149.554 1161.27 149.554C1138.81 149.554 1154.86 129.612 1121.17 126.763C1087.48 123.914 1101.92 206.532 1065.02 179.467C1028.13 152.403 1028.29 -50.6542 1004.23 -54.9275C980.169 -59.2008 1005.67 126.763 946.316 126.763C886.963 126.763 891.775 55.5414 869.317 54.117C846.859 52.6925 856.484 82.6057 827.61 82.6057C798.735 82.6057 797.131 -0.0116157 763.444 4.26169C729.757 8.535 724.944 149.554 692.862 126.763C660.779 103.972 665.591 39.8726 649.55 39.8726C633.508 39.8726 628.696 96.8501 609.446 96.8501C590.196 96.8501 599.821 75.4835 582.176 82.6057C564.53 89.7279 538.864 209.381 519.614 206.532C500.364 203.683 519.614 179.467 482.719 179.467C445.823 179.467 474.698 250.689 413.741 242.143C352.783 233.596 384.866 96.8501 336.742 96.8501C288.617 96.8501 282.201 306.242 218.035 272.056C153.869 237.869 176.327 199.409 158.682 195.136C141.036 190.863 131.411 223.625 112.161 223.625C92.9117 223.625 78.4744 159.525 49.5998 149.554C20.7252 139.583 9.4962 272.056 -11.3577 272.056C-32.2116 272.056 -46.6488 179.467 -61.0861 179.467C-75.5234 179.467 -85.1483 223.625 -99.5856 223.625C-114.023 223.625 -134.877 223.625 -134.877 223.625L-191.022 344.702C-191.022 344.702 -211.876 317.638 -229.521 317.638C-247.167 317.638 -260 377.464 -260 377.464V418" stroke="#1744E3" stroke-width="4"/>
</g>
</g>
<defs>
<filter id="filter0_d_145_1260" x="-283" y="-78.0005" width="2005.78" height="517" filterUnits="userSpaceOnUse" color-interpolation-filters="sRGB">
<feFlood flood-opacity="0" result="BackgroundImageFix"/>
<feColorMatrix in="SourceAlpha" type="matrix" values="0 0 0 0 0 0 0 0 0 0 0 0 0 0 0 0 0 0 127 0" result="hardAlpha"/>
<feOffset/>
<feGaussianBlur stdDeviation="10.5"/>
<feComposite in2="hardAlpha" operator="out"/>
<feColorMatrix type="matrix" values="0 0 0 0 0.109804 0 0 0 0 0.2 0 0 0 0 0.498039 0 0 0 0.2 0"/>
<feBlend mode="normal" in2="BackgroundImageFix" result="effect1_dropShadow_145_1260"/>
<feBlend mode="normal" in="SourceGraphic" in2="effect1_dropShadow_145_1260" result="shape"/>
</filter>
<linearGradient id="paint0_linear_145_1260" x1="720" y1="-1162.5" x2="720" y2="5307.5" gradientUnits="userSpaceOnUse">
<stop stop-color="#1744E3"/>
<stop offset="1" stop-color="#1744E3" stop-opacity="0"/>
</linearGradient>
</defs>
</svg>
