<svg width="45" height="27" viewBox="0 0 45 27" fill="none" xmlns="http://www.w3.org/2000/svg">
<path d="M0.431641 11.1779L0.915895 10.4856C1.40015 9.79331 2.36866 8.40869 3.33717 8.54485C4.30567 8.68101 5.27418 10.3379 6.24269 9.59312C7.2112 8.84829 8.17971 5.7017 9.14822 4.69608C10.1167 3.69046 11.0852 4.8258 12.0537 4.39436C13.0223 3.96292 13.9908 1.96469 14.9593 2.53985C15.9278 3.115 16.8963 6.26355 17.8648 6.40912C18.8333 6.5547 19.8018 3.6973 20.7703 2.2288C21.7388 0.760306 22.7073 0.680706 23.6758 1.44037C24.6444 2.20004 25.6129 3.79898 26.5814 3.97149C27.5499 4.144 28.6322 5.97416 29.6007 6.18303C30.5692 6.39189 31.4239 4.97947 32.3924 5.8377C33.3609 6.69594 34.3294 6.74075 35.2979 6.47309C36.2665 6.20543 37.3318 8.26769 38.3003 6.69457C39.2688 5.12144 40.5728 9.14249 41.5413 7.88882C42.5098 6.63515 42.7628 8.54175 43.2471 8.57114H43.9294" stroke="#FF4A4A" stroke-width="0.19465"/>
<path d="M0.915895 10.5742L0.431641 11.2665V17.8513H44.0145V8.5711H43.2471C42.7628 8.5417 42.6804 6.63511 41.7119 7.88878C40.7433 9.14245 39.2688 5.1216 38.3003 6.69472C37.3318 8.26785 36.2665 6.29405 35.298 6.56171C34.3294 6.82937 33.3609 6.78456 32.3924 5.92632C31.4239 5.06809 30.5692 6.39185 29.6007 6.18298C28.6322 5.97411 27.5499 4.23262 26.5814 4.06011C25.6129 3.8876 24.6444 2.28866 23.6758 1.529C22.7073 0.769329 21.7388 0.848929 20.7703 2.31743C19.8018 3.78592 18.8333 6.64332 17.8648 6.49774C16.8963 6.35217 15.9278 3.20363 14.9593 2.62847C13.9908 2.05331 13.0223 4.05154 12.0537 4.48298C11.0852 4.91442 10.1167 3.77908 9.14822 4.7847C8.17971 5.79032 7.2112 8.93691 6.24269 9.68174C5.27418 10.4266 4.30567 8.76963 3.33717 8.63347C2.36866 8.49731 1.40015 9.88193 0.915895 10.5742Z" fill="url(#paint0_linear_819_2648)"/>
<path d="M21.7562 22.2828V22.961H19.6546V22.2828H21.7562ZM22.4204 21.7956C22.4332 21.4549 22.5446 21.1922 22.7548 21.0075C22.9649 20.8228 23.2499 20.7305 23.6097 20.7305C23.8485 20.7305 24.0523 20.7719 24.2211 20.8547C24.393 20.9375 24.522 21.0505 24.6079 21.1938C24.6971 21.3371 24.7417 21.4979 24.7417 21.6762C24.7417 21.8863 24.6891 22.0583 24.584 22.192C24.479 22.3226 24.3564 22.4117 24.2163 22.4595V22.4786C24.3978 22.5391 24.5411 22.6394 24.6461 22.7795C24.7512 22.9196 24.8038 23.0995 24.8038 23.3192C24.8038 23.5166 24.7576 23.6918 24.6652 23.8446C24.5761 23.9943 24.4439 24.1121 24.2688 24.198C24.0969 24.284 23.8915 24.327 23.6527 24.327C23.2706 24.327 22.9649 24.2331 22.7357 24.0452C22.5096 23.8573 22.3902 23.5739 22.3774 23.195H23.1703C23.1735 23.3351 23.2133 23.4466 23.2897 23.5294C23.3661 23.609 23.4776 23.6488 23.624 23.6488C23.7482 23.6488 23.8437 23.6137 23.9106 23.5437C23.9807 23.4705 24.0157 23.3749 24.0157 23.2571C24.0157 23.1043 23.9663 22.9944 23.8676 22.9276C23.7721 22.8575 23.6177 22.8225 23.4043 22.8225H23.2515V22.1586H23.4043C23.5667 22.1586 23.6973 22.1315 23.796 22.0774C23.8979 22.0201 23.9488 21.9198 23.9488 21.7765C23.9488 21.6619 23.917 21.5727 23.8533 21.509C23.7896 21.4453 23.702 21.4135 23.5906 21.4135C23.4696 21.4135 23.3788 21.4501 23.3184 21.5234C23.261 21.5966 23.2276 21.6873 23.218 21.7956H22.4204ZM25.7469 24.3365C25.6036 24.3365 25.4858 24.2952 25.3935 24.2124C25.3043 24.1264 25.2597 24.0213 25.2597 23.8971C25.2597 23.7698 25.3043 23.6631 25.3935 23.5771C25.4858 23.4912 25.6036 23.4482 25.7469 23.4482C25.887 23.4482 26.0016 23.4912 26.0908 23.5771C26.1831 23.6631 26.2293 23.7698 26.2293 23.8971C26.2293 24.0213 26.1831 24.1264 26.0908 24.2124C26.0016 24.2952 25.887 24.3365 25.7469 24.3365ZM27.2047 22.4261C26.9054 22.2669 26.7558 22.0169 26.7558 21.6762C26.7558 21.5042 26.8004 21.3482 26.8895 21.2081C26.9787 21.0648 27.114 20.9518 27.2955 20.869C27.477 20.783 27.6999 20.7401 27.9642 20.7401C28.2284 20.7401 28.4497 20.783 28.6281 20.869C28.8096 20.9518 28.9449 21.0648 29.034 21.2081C29.1232 21.3482 29.1678 21.5042 29.1678 21.6762C29.1678 21.8481 29.1264 21.9978 29.0436 22.1252C28.964 22.2525 28.8557 22.3528 28.7188 22.4261C28.8907 22.5088 29.0229 22.6235 29.1152 22.7699C29.2076 22.9132 29.2537 23.082 29.2537 23.2762C29.2537 23.5023 29.1964 23.6981 29.0818 23.8637C28.9672 24.0261 28.8111 24.1503 28.6137 24.2362C28.4195 24.3222 28.203 24.3652 27.9642 24.3652C27.7253 24.3652 27.5072 24.3222 27.3098 24.2362C27.1156 24.1503 26.9612 24.0261 26.8465 23.8637C26.7319 23.6981 26.6746 23.5023 26.6746 23.2762C26.6746 23.0788 26.7208 22.9085 26.8131 22.7652C26.9054 22.6187 27.036 22.5057 27.2047 22.4261ZM28.3749 21.8004C28.3749 21.6698 28.3367 21.5695 28.2603 21.4995C28.1871 21.4262 28.0883 21.3896 27.9642 21.3896C27.84 21.3896 27.7397 21.4262 27.6633 21.4995C27.59 21.5727 27.5534 21.6746 27.5534 21.8052C27.5534 21.9293 27.5916 22.028 27.668 22.1013C27.7445 22.1713 27.8432 22.2064 27.9642 22.2064C28.0852 22.2064 28.1839 22.1697 28.2603 22.0965C28.3367 22.0233 28.3749 21.9246 28.3749 21.8004ZM27.9642 22.7795C27.8145 22.7795 27.6935 22.8209 27.6012 22.9037C27.5088 22.9833 27.4627 23.0947 27.4627 23.238C27.4627 23.3718 27.5072 23.4816 27.5964 23.5676C27.6887 23.6535 27.8113 23.6965 27.9642 23.6965C28.117 23.6965 28.2364 23.6535 28.3224 23.5676C28.4115 23.4816 28.4561 23.3718 28.4561 23.238C28.4561 23.0979 28.4099 22.9865 28.3176 22.9037C28.2284 22.8209 28.1106 22.7795 27.9642 22.7795ZM30.6075 23.2762C30.6553 23.5278 30.8017 23.6535 31.0469 23.6535C31.2157 23.6535 31.3351 23.5787 31.4051 23.4291C31.4752 23.2794 31.5102 23.0358 31.5102 22.6983C31.4402 22.797 31.3446 22.8734 31.2236 22.9276C31.1026 22.9817 30.9673 23.0088 30.8177 23.0088C30.6139 23.0088 30.4324 22.9674 30.2732 22.8846C30.114 22.7986 29.9882 22.6728 29.8958 22.5073C29.8067 22.3385 29.7621 22.1347 29.7621 21.8959C29.7621 21.6603 29.8099 21.4549 29.9054 21.2798C30.0041 21.1046 30.1426 20.9693 30.3209 20.8738C30.5024 20.7783 30.7158 20.7305 30.9609 20.7305C31.4322 20.7305 31.7618 20.877 31.9496 21.1699C32.1375 21.4629 32.2314 21.8943 32.2314 22.4643C32.2314 22.8782 32.1932 23.2205 32.1168 23.4912C32.0436 23.7586 31.9178 23.9624 31.7395 24.1025C31.5643 24.2426 31.3239 24.3127 31.0183 24.3127C30.7763 24.3127 30.5693 24.2649 30.3973 24.1694C30.2286 24.0739 30.098 23.9481 30.0057 23.7921C29.9165 23.636 29.8656 23.4641 29.8529 23.2762H30.6075ZM31.0039 22.364C31.1377 22.364 31.2443 22.3242 31.3239 22.2446C31.4035 22.1618 31.4433 22.0503 31.4433 21.9102C31.4433 21.7574 31.4019 21.6396 31.3192 21.5568C31.2364 21.474 31.1249 21.4326 30.9848 21.4326C30.8447 21.4326 30.7333 21.4756 30.6505 21.5616C30.5709 21.6444 30.5311 21.759 30.5311 21.9055C30.5311 22.0424 30.5709 22.1538 30.6505 22.2398C30.7333 22.3226 30.8511 22.364 31.0039 22.364ZM32.6003 21.6905C32.6003 21.4326 32.6735 21.2336 32.82 21.0935C32.9697 20.9534 33.1623 20.8833 33.3979 20.8833C33.6336 20.8833 33.8246 20.9534 33.9711 21.0935C34.1176 21.2336 34.1908 21.4326 34.1908 21.6905C34.1908 21.9484 34.1176 22.1474 33.9711 22.2875C33.8246 22.4277 33.6336 22.4977 33.3979 22.4977C33.1623 22.4977 32.9697 22.4277 32.82 22.2875C32.6735 22.1474 32.6003 21.9484 32.6003 21.6905ZM35.8434 20.9359L34.0045 24.2983H33.2164L35.0553 20.9359H35.8434ZM33.3932 21.361C33.2403 21.361 33.1639 21.4708 33.1639 21.6905C33.1639 21.907 33.2403 22.0153 33.3932 22.0153C33.4664 22.0153 33.5237 21.9882 33.5651 21.9341C33.6065 21.88 33.6272 21.7988 33.6272 21.6905C33.6272 21.4708 33.5492 21.361 33.3932 21.361ZM34.8738 23.5437C34.8738 23.2858 34.947 23.0868 35.0935 22.9467C35.24 22.8066 35.431 22.7365 35.6666 22.7365C35.9023 22.7365 36.0933 22.8066 36.2398 22.9467C36.3863 23.0868 36.4595 23.2858 36.4595 23.5437C36.4595 23.8016 36.3863 24.0006 36.2398 24.1407C36.0933 24.2808 35.9023 24.3509 35.6666 24.3509C35.431 24.3509 35.24 24.2808 35.0935 24.1407C34.947 24.0006 34.8738 23.8016 34.8738 23.5437ZM35.6619 23.2141C35.5886 23.2141 35.5313 23.2412 35.4899 23.2953C35.4517 23.3495 35.4326 23.4323 35.4326 23.5437C35.4326 23.7602 35.509 23.8685 35.6619 23.8685C35.7351 23.8685 35.7924 23.8414 35.8338 23.7873C35.8752 23.7332 35.8959 23.652 35.8959 23.5437C35.8959 23.4354 35.8752 23.3542 35.8338 23.3001C35.7924 23.2428 35.7351 23.2141 35.6619 23.2141Z" fill="#FF4A4A"/>
<path d="M40.2288 22.2187L41.1678 23.1577L41.7411 23.7339C41.9839 23.9767 42.3788 23.9767 42.6216 23.7339L44.1369 22.2187C44.3358 22.0198 44.1924 21.6805 43.9146 21.6805H42.2735H40.4511C40.1703 21.6805 40.0299 22.0198 40.2288 22.2187Z" fill="#FF4A4A"/>
<defs>
<linearGradient id="paint0_linear_819_2648" x1="22.2231" y1="-2.42859" x2="22.2231" y2="17.8513" gradientUnits="userSpaceOnUse">
<stop stop-color="#F50404" stop-opacity="0.97"/>
<stop offset="1" stop-color="#FF4A4A" stop-opacity="0"/>
</linearGradient>
</defs>
</svg>
