<svg width="1440" height="147" viewBox="0 0 1440 147" fill="none" xmlns="http://www.w3.org/2000/svg">
<path opacity="0.3" fill-rule="evenodd" clip-rule="evenodd" d="M-96 38.9744L-53.76 20.9701C-10.24 2.96587 74.24 -33.0427 160 -33.0427C245.76 -33.0427 330.24 2.96587 416 -3.03555C501.76 -9.03697 586.24 -57.0484 672 -63.0498C757.76 -69.0512 842.24 -33.0427 928 -33.0427C1013.76 -33.0427 1098.24 -69.0512 1184 -75.0526C1269.76 -81.054 1354.24 -57.0484 1397.76 -45.0455L1440 -33.0427V147H1397.76C1354.24 147 1269.76 147 1184 147C1098.24 147 1013.76 147 928 147C842.24 147 757.76 147 672 147C586.24 147 501.76 147 416 147C330.24 147 245.76 147 160 147C74.24 147 -10.24 147 -53.76 147H-96V38.9744Z" fill="url(#paint0_linear_159_1164)"/>
<defs>
<linearGradient id="paint0_linear_159_1164" x1="672" y1="-76" x2="672" y2="147" gradientUnits="userSpaceOnUse">
<stop stop-color="#141F47"/>
<stop offset="1" stop-color="#141F47" stop-opacity="0"/>
</linearGradient>
</defs>
</svg>
