<svg width="1440" height="1274" viewBox="0 0 1440 1274" fill="none" xmlns="http://www.w3.org/2000/svg">
<path opacity="0.3" fill-rule="evenodd" clip-rule="evenodd" d="M-1422 403.699L-1273.56 340.483C-1120.61 277.266 -823.722 150.832 -522.333 150.832C-220.945 150.832 75.9449 277.266 377.333 256.194C678.722 235.121 975.612 66.5432 1277 45.471C1578.39 24.3987 1875.28 150.832 2176.67 150.832C2478.05 150.832 2774.94 24.3987 3076.33 3.32643C3377.72 -17.7458 3674.61 66.5432 3827.55 108.688L3976 150.832V2085.5H3827.55C3674.61 2085.5 3377.72 2085.5 3076.33 2085.5C2774.94 2085.5 2478.05 2085.5 2176.67 2085.5C1875.28 2085.5 1578.39 2085.5 1277 2085.5C975.612 2085.5 678.722 2085.5 377.333 2085.5C75.9449 2085.5 -220.945 2085.5 -522.333 2085.5C-823.722 2085.5 -1120.61 2085.5 -1273.56 2085.5H-1422V403.699Z" fill="url(#paint0_linear_507_2105)"/>
<defs>
<linearGradient id="paint0_linear_507_2105" x1="1277" y1="0" x2="1277" y2="783" gradientUnits="userSpaceOnUse">
<stop stop-color="#141F47"/>
<stop offset="1" stop-color="#141F47" stop-opacity="0"/>
</linearGradient>
</defs>
</svg>
