<svg width="443" height="163" viewBox="0 0 443 163" fill="none" xmlns="http://www.w3.org/2000/svg">
<g filter="url(#filter0_bd_815_2302)">
<path d="M400 106.002C400 113.734 393.732 120.002 386 120.002H56.8535C46.9022 120.002 40.1279 109.912 43.8958 100.702L63.9413 51.7016C66.0937 46.44 71.2141 43.0024 76.8989 43.0024H386C393.732 43.0024 400 49.2705 400 57.0024V106.002Z" fill="#1744E3" fill-opacity="0.05" shape-rendering="crispEdges"/>
<path d="M398 106.002C398 112.63 392.627 118.002 386 118.002H56.8535C48.3238 118.002 42.5173 109.353 45.7469 101.459L65.7924 52.4588C67.6373 47.9489 72.0262 45.0024 76.8989 45.0024H386C392.627 45.0024 398 50.375 398 57.0024V106.002Z" stroke="#1744E3" stroke-width="4" shape-rendering="crispEdges"/>
</g>
<defs>
<filter id="filter0_bd_815_2302" x="-9.47468" y="-9.31208" width="461.789" height="181.629" filterUnits="userSpaceOnUse" color-interpolation-filters="sRGB">
<feFlood flood-opacity="0" result="BackgroundImageFix"/>
<feGaussianBlur in="BackgroundImage" stdDeviation="26.1573"/>
<feComposite in2="SourceAlpha" operator="in" result="effect1_backgroundBlur_815_2302"/>
<feColorMatrix in="SourceAlpha" type="matrix" values="0 0 0 0 0 0 0 0 0 0 0 0 0 0 0 0 0 0 127 0" result="hardAlpha"/>
<feOffset/>
<feGaussianBlur stdDeviation="21.127"/>
<feComposite in2="hardAlpha" operator="out"/>
<feColorMatrix type="matrix" values="0 0 0 0 0.0901961 0 0 0 0 0.266667 0 0 0 0 0.890196 0 0 0 0.4 0"/>
<feBlend mode="normal" in2="effect1_backgroundBlur_815_2302" result="effect2_dropShadow_815_2302"/>
<feBlend mode="normal" in="SourceGraphic" in2="effect2_dropShadow_815_2302" result="shape"/>
</filter>
</defs>
</svg>
