<svg width="9" height="8" viewBox="0 0 9 8" fill="none" xmlns="http://www.w3.org/2000/svg">
<path d="M7.61199 1.77278L7.61757 1.76602L6.02551 0.476452L5.52401 1.09497L6.34671 1.76124C6.14262 1.88526 5.98057 2.06781 5.88162 2.28516C5.78267 2.50251 5.7514 2.7446 5.79188 2.97996C5.85158 3.33777 6.09795 3.64703 6.41676 3.82016C6.77298 4.014 7.08542 3.99609 7.36323 3.89738L7.35726 6.3579C7.35774 6.42381 7.34179 6.48879 7.31083 6.54698C7.27988 6.60516 7.2349 6.65471 7.17998 6.69114C7.12506 6.72757 7.06192 6.74973 6.99627 6.75562C6.93063 6.76151 6.86456 6.75094 6.80403 6.72487C6.75662 6.70459 6.71362 6.67525 6.67746 6.6385C6.64066 6.60163 6.6115 6.55787 6.59162 6.50973C6.57175 6.46158 6.56156 6.40999 6.56164 6.3579L6.57079 5.56187C6.57119 5.40521 6.54055 5.25001 6.48064 5.10526C6.42073 4.9605 6.33273 4.82904 6.22173 4.71848C6.11085 4.60736 5.97915 4.51919 5.83415 4.45902C5.68916 4.39885 5.53373 4.36787 5.37675 4.36783H4.97874V1.18372C4.97874 0.972603 4.89487 0.77013 4.74558 0.620846C4.5963 0.471562 4.39383 0.387695 4.18271 0.387695H1.39661C1.18549 0.387695 0.983021 0.471562 0.833737 0.620846C0.684453 0.77013 0.600586 0.972603 0.600586 1.18372V6.75591C0.600586 6.96703 0.684453 7.16951 0.833737 7.31879C0.983021 7.46807 1.18549 7.55194 1.39661 7.55194H4.18271C4.39383 7.55194 4.5963 7.46807 4.74558 7.31879C4.89487 7.16951 4.97874 6.96703 4.97874 6.75591V5.16386H5.37675C5.43088 5.16386 5.48302 5.17461 5.53237 5.1949C5.6271 5.23637 5.70261 5.31217 5.74372 5.40705C5.76437 5.45604 5.77492 5.5087 5.77476 5.56187L5.76521 6.3579C5.76521 6.51949 5.79665 6.67591 5.85914 6.82278C5.91924 6.96567 6.00561 7.09343 6.11427 7.20129C6.22475 7.31295 6.35638 7.40147 6.50146 7.46167C6.64655 7.52188 6.80217 7.55257 6.95925 7.55194C7.12084 7.55194 7.27687 7.5209 7.42413 7.45801C7.56662 7.39831 7.69478 7.31194 7.80264 7.20288C7.91407 7.09223 8.00243 6.96056 8.06262 6.81552C8.12281 6.67048 8.15363 6.51494 8.15329 6.3579L8.16284 2.77578C8.16245 2.57582 8.1118 2.37918 8.01554 2.20391C7.91929 2.02865 7.78052 1.8804 7.61199 1.77278ZM4.18271 2.37776H1.39661V1.18372H4.18271V2.37776ZM6.9688 3.17379C6.86324 3.17379 6.76201 3.13186 6.68737 3.05722C6.61272 2.98257 6.57079 2.88134 6.57079 2.77578C6.57079 2.67022 6.61272 2.56898 6.68737 2.49434C6.76201 2.4197 6.86324 2.37776 6.9688 2.37776C7.07436 2.37776 7.1756 2.4197 7.25024 2.49434C7.32488 2.56898 7.36682 2.67022 7.36682 2.77578C7.36682 2.88134 7.32488 2.98257 7.25024 3.05722C7.1756 3.13186 7.07436 3.17379 6.9688 3.17379Z" fill="white"/>
</svg>
