<svg width="49" height="29" viewBox="0 0 49 29" fill="none" xmlns="http://www.w3.org/2000/svg">
<path d="M0.879012 11.5089L0.347656 12.2685V19.4937H48.1697V9.3109H47.3276C46.7962 9.27865 46.7057 7.18661 45.643 8.56222C44.5803 9.93783 42.9623 5.52589 41.8996 7.25202C40.8369 8.97816 39.668 6.81238 38.6053 7.10607C37.5425 7.39977 36.4798 7.35059 35.4171 6.40889C34.3544 5.46718 33.4166 6.91969 32.3539 6.69051C31.2912 6.46132 30.1036 4.55044 29.0409 4.36115C27.9781 4.17186 26.9154 2.4174 25.8527 1.58385C24.79 0.750291 23.7273 0.837634 22.6646 2.44897C21.6019 4.0603 20.5392 7.19562 19.4765 7.03588C18.4137 6.87615 17.351 3.42136 16.2883 2.79026C15.2256 2.15916 14.1629 4.35175 13.1002 4.82516C12.0375 5.29856 10.9748 4.05279 9.91206 5.15622C8.84935 6.25965 7.78663 9.7123 6.72392 10.5296C5.66121 11.3468 4.5985 9.52874 3.53579 9.37934C2.47308 9.22994 1.41037 10.7492 0.879012 11.5089Z" fill="url(#paint0_linear_819_2674)"/>
<path d="M24.024 25.4911H23.1121V26.424H22.2631V25.4911H21.3512V24.6893H22.2631V23.7512H23.1121V24.6893H24.024V25.4911ZM24.6001 24.1757C24.6141 23.8019 24.7364 23.5136 24.967 23.311C25.1976 23.1083 25.5103 23.007 25.9051 23.007C26.1671 23.007 26.3907 23.0524 26.5759 23.1433C26.7646 23.2341 26.9061 23.3581 27.0004 23.5154C27.0982 23.6726 27.1471 23.849 27.1471 24.0447C27.1471 24.2753 27.0895 24.4639 26.9742 24.6107C26.8589 24.7539 26.7244 24.8518 26.5707 24.9042V24.9251C26.7698 24.9915 26.927 25.1016 27.0423 25.2553C27.1576 25.409 27.2153 25.6064 27.2153 25.8475C27.2153 26.0641 27.1646 26.2563 27.0633 26.424C26.9655 26.5882 26.8205 26.7175 26.6283 26.8118C26.4396 26.9062 26.2143 26.9533 25.9522 26.9533C25.533 26.9533 25.1976 26.8503 24.946 26.6441C24.6979 26.438 24.5669 26.127 24.553 25.7113H25.4229C25.4264 25.865 25.4701 25.9873 25.5539 26.0781C25.6378 26.1655 25.7601 26.2091 25.9208 26.2091C26.0571 26.2091 26.1619 26.1707 26.2352 26.0938C26.3121 26.0135 26.3505 25.9087 26.3505 25.7794C26.3505 25.6117 26.2964 25.4911 26.1881 25.4178C26.0833 25.3409 25.9138 25.3025 25.6797 25.3025H25.512V24.574H25.6797C25.8579 24.574 26.0012 24.5443 26.1095 24.4849C26.2213 24.422 26.2772 24.312 26.2772 24.1547C26.2772 24.029 26.2422 23.9311 26.1724 23.8613C26.1025 23.7914 26.0064 23.7564 25.8841 23.7564C25.7513 23.7564 25.6518 23.7966 25.5854 23.877C25.5225 23.9573 25.4858 24.0569 25.4753 24.1757H24.6001ZM28.2502 26.9638C28.0929 26.9638 27.9637 26.9184 27.8623 26.8275C27.7645 26.7332 27.7156 26.6179 27.7156 26.4816C27.7156 26.3419 27.7645 26.2249 27.8623 26.1305C27.9637 26.0362 28.0929 25.989 28.2502 25.989C28.4039 25.989 28.5297 26.0362 28.6275 26.1305C28.7288 26.2249 28.7795 26.3419 28.7795 26.4816C28.7795 26.6179 28.7288 26.7332 28.6275 26.8275C28.5297 26.9184 28.4039 26.9638 28.2502 26.9638ZM29.8498 24.8675C29.5214 24.6928 29.3572 24.4185 29.3572 24.0447C29.3572 23.856 29.4061 23.6848 29.5039 23.5311C29.6017 23.3739 29.7502 23.2498 29.9494 23.159C30.1485 23.0647 30.3931 23.0175 30.6831 23.0175C30.9731 23.0175 31.2159 23.0647 31.4115 23.159C31.6107 23.2498 31.7592 23.3739 31.857 23.5311C31.9548 23.6848 32.0038 23.856 32.0038 24.0447C32.0038 24.2334 31.9583 24.3976 31.8675 24.5373C31.7801 24.6771 31.6614 24.7871 31.5111 24.8675C31.6998 24.9583 31.8448 25.0841 31.9461 25.2448C32.0474 25.402 32.0981 25.5872 32.0981 25.8003C32.0981 26.0484 32.0352 26.2633 31.9094 26.445C31.7836 26.6232 31.6124 26.7594 31.3958 26.8537C31.1827 26.9481 30.9451 26.9952 30.6831 26.9952C30.421 26.9952 30.1817 26.9481 29.9651 26.8537C29.752 26.7594 29.5825 26.6232 29.4567 26.445C29.331 26.2633 29.2681 26.0484 29.2681 25.8003C29.2681 25.5837 29.3187 25.3968 29.42 25.2396C29.5214 25.0789 29.6646 24.9548 29.8498 24.8675ZM31.1338 24.1809C31.1338 24.0377 31.0919 23.9276 31.008 23.8508C30.9276 23.7704 30.8193 23.7302 30.6831 23.7302C30.5468 23.7302 30.4368 23.7704 30.3529 23.8508C30.2725 23.9311 30.2324 24.0429 30.2324 24.1862C30.2324 24.3224 30.2743 24.4308 30.3581 24.5111C30.442 24.588 30.5503 24.6264 30.6831 24.6264C30.8158 24.6264 30.9242 24.5862 31.008 24.5059C31.0919 24.4255 31.1338 24.3172 31.1338 24.1809ZM30.6831 25.2553C30.5189 25.2553 30.3861 25.3007 30.2848 25.3916C30.1835 25.4789 30.1328 25.6012 30.1328 25.7584C30.1328 25.9052 30.1817 26.0257 30.2795 26.12C30.3809 26.2144 30.5154 26.2615 30.6831 26.2615C30.8508 26.2615 30.9818 26.2144 31.0761 26.12C31.174 26.0257 31.2229 25.9052 31.2229 25.7584C31.2229 25.6047 31.1722 25.4824 31.0709 25.3916C30.9731 25.3007 30.8438 25.2553 30.6831 25.2553ZM33.5835 25.8003C33.6359 26.0764 33.7966 26.2144 34.0657 26.2144C34.2508 26.2144 34.3819 26.1323 34.4587 25.9681C34.5356 25.8038 34.574 25.5366 34.574 25.1662C34.4972 25.2745 34.3924 25.3584 34.2596 25.4178C34.1268 25.4772 33.9783 25.5069 33.8141 25.5069C33.5905 25.5069 33.3914 25.4614 33.2167 25.3706C33.042 25.2763 32.904 25.1383 32.8026 24.9566C32.7048 24.7714 32.6559 24.5478 32.6559 24.2858C32.6559 24.0272 32.7083 23.8019 32.8131 23.6097C32.9214 23.4175 33.0734 23.269 33.2691 23.1642C33.4682 23.0594 33.7023 23.007 33.9713 23.007C34.4884 23.007 34.85 23.1677 35.0562 23.4892C35.2623 23.8106 35.3654 24.284 35.3654 24.9094C35.3654 25.3636 35.3235 25.7392 35.2396 26.0362C35.1593 26.3297 35.0212 26.5533 34.8256 26.707C34.6334 26.8607 34.3696 26.9376 34.0342 26.9376C33.7687 26.9376 33.5416 26.8852 33.3529 26.7804C33.1678 26.6756 33.0245 26.5376 32.9232 26.3664C32.8254 26.1952 32.7695 26.0065 32.7555 25.8003H33.5835ZM34.0185 24.7994C34.1653 24.7994 34.2823 24.7557 34.3696 24.6683C34.457 24.5775 34.5007 24.4552 34.5007 24.3015C34.5007 24.1338 34.4552 24.0045 34.3644 23.9137C34.2736 23.8228 34.1513 23.7774 33.9975 23.7774C33.8438 23.7774 33.7215 23.8246 33.6307 23.9189C33.5433 24.0097 33.4997 24.1355 33.4997 24.2962C33.4997 24.4465 33.5433 24.5688 33.6307 24.6631C33.7215 24.7539 33.8508 24.7994 34.0185 24.7994ZM35.7702 24.0604C35.7702 23.7774 35.8505 23.559 36.0112 23.4053C36.1754 23.2516 36.3868 23.1747 36.6454 23.1747C36.9039 23.1747 37.1135 23.2516 37.2743 23.4053C37.435 23.559 37.5153 23.7774 37.5153 24.0604C37.5153 24.3434 37.435 24.5618 37.2743 24.7155C37.1135 24.8692 36.9039 24.9461 36.6454 24.9461C36.3868 24.9461 36.1754 24.8692 36.0112 24.7155C35.8505 24.5618 35.7702 24.3434 35.7702 24.0604ZM39.3287 23.2324L37.311 26.9219H36.4462L38.4639 23.2324H39.3287ZM36.6401 23.6988C36.4724 23.6988 36.3886 23.8193 36.3886 24.0604C36.3886 24.298 36.4724 24.4168 36.6401 24.4168C36.7205 24.4168 36.7834 24.3871 36.8288 24.3277C36.8742 24.2683 36.8969 24.1792 36.8969 24.0604C36.8969 23.8193 36.8113 23.6988 36.6401 23.6988ZM38.2648 26.0938C38.2648 25.8108 38.3451 25.5925 38.5059 25.4387C38.6666 25.285 38.8762 25.2081 39.1347 25.2081C39.3933 25.2081 39.6029 25.285 39.7636 25.4387C39.9244 25.5925 40.0047 25.8108 40.0047 26.0938C40.0047 26.3768 39.9244 26.5952 39.7636 26.7489C39.6029 26.9027 39.3933 26.9795 39.1347 26.9795C38.8762 26.9795 38.6666 26.9027 38.5059 26.7489C38.3451 26.5952 38.2648 26.3768 38.2648 26.0938ZM39.1295 25.7322C39.0491 25.7322 38.9863 25.7619 38.9408 25.8213C38.8989 25.8807 38.8779 25.9715 38.8779 26.0938C38.8779 26.3314 38.9618 26.4502 39.1295 26.4502C39.2099 26.4502 39.2728 26.4205 39.3182 26.3611C39.3636 26.3017 39.3863 26.2126 39.3863 26.0938C39.3863 25.975 39.3636 25.8859 39.3182 25.8266C39.2728 25.7637 39.2099 25.7322 39.1295 25.7322Z" fill="#5CDD90"/>
<path d="M48.4269 25.5577L47.3966 24.5274L46.7675 23.8951C46.5011 23.6287 46.0678 23.6287 45.8014 23.8951L44.1387 25.5577C43.9205 25.776 44.0778 26.1483 44.3827 26.1483H46.1833H48.183C48.4911 26.1483 48.6452 25.776 48.4269 25.5577Z" fill="#5CDD90"/>
<defs>
<linearGradient id="paint0_linear_819_2674" x1="24.2587" y1="1.06421" x2="24.2587" y2="19.4937" gradientUnits="userSpaceOnUse">
<stop stop-color="#5CDD90" stop-opacity="0.44"/>
<stop offset="1" stop-color="#5CDD90" stop-opacity="0"/>
</linearGradient>
</defs>
</svg>
