<svg width="1440" height="76" viewBox="0 0 1440 76" fill="none" xmlns="http://www.w3.org/2000/svg">
<path opacity="0.3" fill-rule="evenodd" clip-rule="evenodd" d="M-96 114.974L-53.76 96.9701C-10.24 78.9659 74.24 42.9573 160 42.9573C245.76 42.9573 330.24 78.9659 416 72.9644C501.76 66.963 586.24 18.9516 672 12.9502C757.76 6.9488 842.24 42.9573 928 42.9573C1013.76 42.9573 1098.24 6.9488 1184 0.947375C1269.76 -5.05405 1354.24 18.9516 1397.76 30.9545L1440 42.9573V223H1397.76C1354.24 223 1269.76 223 1184 223C1098.24 223 1013.76 223 928 223C842.24 223 757.76 223 672 223C586.24 223 501.76 223 416 223C330.24 223 245.76 223 160 223C74.24 223 -10.24 223 -53.76 223H-96V114.974Z" fill="url(#paint0_linear_159_1161)"/>
<defs>
<linearGradient id="paint0_linear_159_1161" x1="672" y1="0" x2="672" y2="223" gradientUnits="userSpaceOnUse">
<stop stop-color="#141F47"/>
<stop offset="1" stop-color="#141F47" stop-opacity="0"/>
</linearGradient>
</defs>
</svg>
