<svg width="65" height="65" viewBox="0 0 65 65" fill="none" xmlns="http://www.w3.org/2000/svg">
<rect y="0.226929" width="64.2705" height="64.2705" rx="32.1353" fill="#1744E3"/>
<g clip-path="url(#clip0_879_6114)">
<path d="M43.8592 29.5772H42.3347V25.6482C42.3347 25.4398 42.2519 25.2399 42.1046 25.0925C41.9572 24.9452 41.7573 24.8624 41.5489 24.8624H22.6895C22.4811 24.8624 22.2812 24.7796 22.1338 24.6322C21.9864 24.4848 21.9037 24.285 21.9037 24.0766C21.9037 23.8681 21.9864 23.6683 22.1338 23.5209C22.2812 23.3735 22.4811 23.2907 22.6895 23.2907H41.2346C41.443 23.2907 41.6429 23.2079 41.7902 23.0606C41.9376 22.9132 42.0204 22.7133 42.0204 22.5049C42.0204 22.2965 41.9376 22.0966 41.7902 21.9493C41.6429 21.8019 41.443 21.7191 41.2346 21.7191H22.6895C22.3861 21.7129 22.0844 21.7664 21.8017 21.8768C21.519 21.9872 21.2608 22.1521 21.0419 22.3623C20.823 22.5725 20.6476 22.8237 20.5258 23.1017C20.404 23.3796 20.3382 23.6788 20.332 23.9823V40.4843C20.3331 40.9111 20.4183 41.3336 20.5828 41.7275C20.7474 42.1213 20.988 42.4789 21.2909 42.7796C21.5938 43.0803 21.9531 43.3184 22.3482 43.4801C22.7432 43.6417 23.1663 43.7239 23.5931 43.7218H41.5489C41.7573 43.7218 41.9572 43.639 42.1046 43.4917C42.2519 43.3443 42.3347 43.1444 42.3347 42.936V39.007H43.8592C43.9584 39.0145 44.0581 39.0016 44.1521 38.9693C44.2462 38.9369 44.3326 38.8857 44.4062 38.8187C44.4798 38.7518 44.5389 38.6705 44.58 38.5799C44.621 38.4893 44.6432 38.3913 44.645 38.2919V30.4338C44.6476 30.2178 44.5678 30.009 44.4218 29.8498C44.2758 29.6907 44.0746 29.5932 43.8592 29.5772ZM43.1205 37.4353H36.3783C35.573 37.4067 34.812 37.0595 34.2624 36.4702C33.7128 35.8808 33.4196 35.0974 33.4472 34.2921C33.4196 33.4867 33.7128 32.7034 34.2624 32.114C34.812 31.5247 35.573 31.1775 36.3783 31.1488H43.1205V37.4353Z" fill="#F8F8F8"/>
<path d="M36.8701 35.4077C37.5211 35.4077 38.0488 34.88 38.0488 34.229C38.0488 33.578 37.5211 33.0503 36.8701 33.0503C36.2191 33.0503 35.6914 33.578 35.6914 34.229C35.6914 34.88 36.2191 35.4077 36.8701 35.4077Z" fill="#F8F8F8"/>
</g>
<defs>
<clipPath id="clip0_879_6114">
<rect width="36.2705" height="36.2705" fill="white" transform="translate(14 14.2269)"/>
</clipPath>
</defs>
</svg>
