<svg width="72" height="73" viewBox="0 0 72 73" fill="none" xmlns="http://www.w3.org/2000/svg">
<circle cx="36" cy="36.9512" r="36" fill="#17B2E3"/>
<path d="M47.7948 52.2333L31.9569 36.4932C31.8936 36.4303 31.894 36.3277 31.9577 36.2653L35.2839 33.0084C35.3466 32.947 35.4472 32.9476 35.5092 33.0098L51.2453 48.7948C51.2786 48.8281 51.2955 48.8756 51.2908 48.9225C51.0268 51.5704 48.9705 52.2599 47.9057 52.279C47.8638 52.2798 47.8245 52.2628 47.7948 52.2333Z" fill="white"/>
<path fill-rule="evenodd" clip-rule="evenodd" d="M31.008 25.9669C33.8239 23.3916 39.1521 19.4929 41.714 21.1502C41.7935 21.2016 41.8031 21.3123 41.7385 21.3814L34.3356 29.3133L35.0142 29.9957C35.2635 30.2464 35.2624 30.6518 35.0116 30.9012L29.9613 35.923C29.7106 36.1724 29.3052 36.1712 29.0559 35.9205L28.2926 35.1529L20.4631 42.8235C20.3955 42.8897 20.2846 42.8827 20.2313 42.8046C18.4739 40.227 22.4527 34.6178 24.9538 31.7953L24.119 30.9557C23.8697 30.705 23.8708 30.2996 24.1216 30.0503L29.1719 25.0284C29.4226 24.7791 29.828 24.7802 30.0773 25.031L31.008 25.9669Z" fill="white"/>
<ellipse cx="27.102" cy="28.1579" rx="2.98753" ry="2.93814" fill="white"/>
</svg>
