<svg width="72" height="73" viewBox="0 0 72 73" fill="none" xmlns="http://www.w3.org/2000/svg">
<circle cx="36" cy="36.9512" r="36" fill="#1F49DE"/>
<g clip-path="url(#clip0_29235_3720)">
<path d="M48.5846 28.1438L46.6264 36.3887C46.2691 37.8931 44.9395 38.9438 43.3933 38.9438H31.5073L31.975 40.8928C32.1545 41.6407 32.8171 42.163 33.5862 42.163H45.3654V43.8246H33.5862C32.0458 43.8246 30.7188 42.7784 30.3593 41.2805L26.714 26.0911C26.5344 25.3431 25.8719 24.8207 25.1027 24.8207H22V23.1592H25.1027C26.6431 23.1592 27.9701 24.2053 28.3296 25.7033L28.9153 28.1438H48.5846ZM31.8289 47.3553C31.8289 48.6745 32.8982 49.7438 34.2174 49.7438C35.5366 49.7438 36.6059 48.6745 36.6059 47.3553C36.6059 46.0362 35.5366 44.9669 34.2174 44.9669C32.8982 44.9669 31.8289 46.0362 31.8289 47.3553ZM40.552 47.3553C40.552 48.6745 41.6213 49.7438 42.9405 49.7438C44.2596 49.7438 45.3289 48.6745 45.3289 47.3553C45.3289 46.0362 44.2596 44.9669 42.9405 44.9669C41.6213 44.9669 40.552 46.0362 40.552 47.3553Z" fill="white"/>
</g>
<defs>
<clipPath id="clip0_29235_3720">
<rect width="27" height="27" fill="white" transform="translate(22 22.9512)"/>
</clipPath>
</defs>
</svg>
